<svg width="128" height="128" version="1.1" xmlns="http://www.w3.org/2000/svg" desc="Created with imagetracer.js version 1.2.6" ><path fill="rgb(202,202,202)" stroke="rgb(202,202,202)" stroke-width="1" opacity="0.796078431372549" d="M 95.5 34 L 94.5 36 L 95.5 34 Z " /><path fill="rgb(202,202,202)" stroke="rgb(202,202,202)" stroke-width="1" opacity="0.796078431372549" d="M 68.5 35 L 65.5 39 L 68.5 35 Z " /><path fill="rgb(202,202,202)" stroke="rgb(202,202,202)" stroke-width="1" opacity="0.796078431372549" d="M 74.5 36 L 79 36.5 L 74.5 37 L 74.5 36 Z " /><path fill="rgb(202,202,202)" stroke="rgb(202,202,202)" stroke-width="1" opacity="0.796078431372549" d="M 85.5 37 L 90 37.5 L 85.5 38 L 85.5 37 Z " /><path fill="rgb(202,202,202)" stroke="rgb(202,202,202)" stroke-width="1" opacity="0.796078431372549" d="M 60.5 42 L 62.5 45 L 60.5 42 Z " /><path fill="rgb(202,202,202)" stroke="rgb(202,202,202)" stroke-width="1" opacity="0.796078431372549" d="M 97.5 43 L 96.5 45 L 97.5 43 Z " /><path fill="rgb(202,202,202)" stroke="rgb(202,202,202)" stroke-width="1" opacity="0.796078431372549" d="M 80.5 46 L 79.5 48 L 80.5 46 Z " /><path fill="rgb(202,202,202)" stroke="rgb(202,202,202)" stroke-width="1" opacity="0.796078431372549" d="M 94.5 49 L 97 50.5 L 95.5 50 L 94.5 49 Z " /><path fill="rgb(202,202,202)" stroke="rgb(202,202,202)" stroke-width="1" opacity="0.796078431372549" d="M 70.5 52 L 75.5 58 L 70.5 52 Z " /><path fill="rgb(202,202,202)" stroke="rgb(202,202,202)" stroke-width="1" opacity="0.796078431372549" d="M 75.5 53 L 77.5 56 L 75.5 53 Z " /><path fill="rgb(202,202,202)" stroke="rgb(202,202,202)" stroke-width="1" opacity="0.796078431372549" d="M 80.5 53 L 81.5 55 L 80.5 53 Z " /><path fill="rgb(202,202,202)" stroke="rgb(202,202,202)" stroke-width="1" opacity="0.796078431372549" d="M 56.5 54 L 60.5 59 L 56.5 54 Z " /><path fill="rgb(202,202,202)" stroke="rgb(202,202,202)" stroke-width="1" opacity="0.796078431372549" d="M 90.5 56 L 89.5 58 L 90.5 56 Z " /><path fill="rgb(202,202,202)" stroke="rgb(202,202,202)" stroke-width="1" opacity="0.796078431372549" d="M 64.5 62 L 65.5 64 L 64.5 62 Z " /><path fill="rgb(202,202,202)" stroke="rgb(202,202,202)" stroke-width="1" opacity="0.796078431372549" d="M 82.5 64 L 85.5 68 L 82.5 64 Z " /><path fill="rgb(202,202,202)" stroke="rgb(202,202,202)" stroke-width="1" opacity="0.796078431372549" d="M 69.5 67 L 73.5 72 L 69.5 67 Z " /><path fill="rgb(202,202,202)" stroke="rgb(202,202,202)" stroke-width="1" opacity="0.796078431372549" d="M 68.5 74 L 69.5 76 L 68.5 74 Z " /><path fill="rgb(202,202,202)" stroke="rgb(202,202,202)" stroke-width="1" opacity="0.796078431372549" d="M 76.5 74 L 75.5 76 L 76.5 74 Z " /><path fill="rgb(202,202,202)" stroke="rgb(202,202,202)" stroke-width="1" opacity="0.796078431372549" d="M 54.5 84 L 53.5 86 L 54.5 84 Z " /><path fill="rgb(202,202,202)" stroke="rgb(202,202,202)" stroke-width="1" opacity="0.796078431372549" d="M 50.5 87 L 49.5 89 L 50.5 87 Z " /><path fill="rgb(0,0,0)" stroke="rgb(0,0,0)" stroke-width="1" opacity="0" d="M 0 0 L 53 0.5 Q 28.2 5.2 15 21.5 Q 3.8 33.3 0.5 53 L 0 0 Z " /><path fill="rgb(0,0,0)" stroke="rgb(0,0,0)" stroke-width="1" opacity="0" d="M 75.5 0 L 128 0 L 128 52.5 L 127 52.5 Q 122.7 27.8 106.5 15 L 88.5 4 L 79.5 1 L 75.5 1 L 75.5 0 Z " /><path fill="rgb(0,0,0)" stroke="rgb(0,0,0)" stroke-width="1" opacity="0" d="M 0.5 75 Q 5.2 99.8 21.5 113 Q 33.3 124.2 53 127.5 L 0 128 L 0.5 75 Z " /><path fill="rgb(0,0,0)" stroke="rgb(0,0,0)" stroke-width="1" opacity="0" d="M 127.5 75 L 128 128 L 75 127.5 Q 99.8 122.8 113 106.5 Q 124.2 94.7 127.5 75 Z " /><path fill="rgb(243,243,243)" stroke="rgb(243,243,243)" stroke-width="1" opacity="0.9882352941176471" d="M 53.5 0 L 61 0.5 Q 28.8 3.8 14 24.5 Q 2.2 37.7 0.5 61 L 0 53.5 Q 5 28.5 21.5 15 Q 33.8 3.8 53.5 0 Z " /><path fill="rgb(243,243,243)" stroke="rgb(243,243,243)" stroke-width="1" opacity="0.9882352941176471" d="M 67.5 0 L 74.5 0 L 88.5 4 Q 103.5 10 113 21.5 Q 121.5 31 126 44.5 L 128 53.5 L 128 60.5 L 127 60.5 L 126 48.5 L 119 31.5 L 103.5 14 L 88.5 5 L 74.5 1 L 67.5 1 L 67.5 0 Z " /><path fill="rgb(243,243,243)" stroke="rgb(243,243,243)" stroke-width="1" opacity="0.9882352941176471" d="M 0.5 67 Q 3.8 99.2 24.5 114 Q 37.7 125.8 61 127.5 L 53.5 128 Q 28.5 123 15 106.5 Q 6.5 97 2 83.5 L 0 74.5 L 0.5 67 Z " /><path fill="rgb(243,243,243)" stroke="rgb(243,243,243)" stroke-width="1" opacity="0.9882352941176471" d="M 127.5 67 L 128 74.5 Q 123 99.5 106.5 113 Q 97 121.5 83.5 126 L 74.5 128 L 67.5 128 L 67.5 127 L 79.5 126 L 96.5 119 L 114 103.5 Q 125.8 90.3 127.5 67 Z " /><path fill="rgb(243,243,243)" stroke="rgb(243,243,243)" stroke-width="1" opacity="1" d="M 61.5 0 L 74.5 1 L 88.5 5 Q 104.1 11.9 114 24.5 Q 127.1 39.4 128 66.5 L 127 67.5 L 126 79.5 L 119 96.5 L 103.5 114 Q 88.6 127.1 61.5 128 L 60.5 127 L 48.5 126 L 31.5 119 L 14 103.5 Q 0.9 88.6 0 61.5 L 1 60.5 L 2 48.5 L 9 31.5 L 24.5 14 L 39.5 5 L 48.5 2 L 60.5 1 L 61.5 0 Z M 94 29 L 93 33 L 91 34 L 83 34 L 82 33 Q 73 32 69 35 L 63 44 L 59 42 Q 55 44 56 50 L 51 54 Q 50 58 53 60 L 28 94 Q 27 98 30 99 L 36 99 L 68 75 L 72 77 L 76 76 L 77 72 Q 83 73 86 70 Q 87 66 83 65 L 90 62 L 97 53 L 96 49 L 91 51 L 86 50 L 97 45 Q 102 42 100 33 Q 99 28 94 29 Z " /><path fill="rgb(243,243,243)" stroke="rgb(243,243,243)" stroke-width="1" opacity="1" d="M 96.5 34 L 97 38.5 L 94.5 42 L 85.5 45 L 82 48.5 Q 81.5 53.5 85.5 54 L 92 54.5 Q 88.6 60.6 79.5 61 L 82 57.5 Q 82.8 53.8 80.5 53 L 78 51.5 L 81 44.5 Q 79.5 41.5 73.5 43 L 68 47.5 L 67.5 49 Q 65.3 48.3 66 44.5 L 70.5 38 L 72.5 37 L 84.5 37 L 89.5 38 L 96.5 34 Z " /><path fill="rgb(243,243,243)" stroke="rgb(243,243,243)" stroke-width="1" opacity="1" d="M 59 47 L 60.5 47 L 81 67.5 L 75.5 69 L 70.5 64 L 69 65.5 L 69 67.5 L 74 72.5 L 71.5 73 L 54 55.5 L 55.5 54 L 60.5 59 L 63 59 Q 63.8 53.9 59 52.5 L 59 47 Z M 66 60 L 64 63 Q 65 65 67 63 Q 69 64 68 62 L 66 60 Z " /><path fill="rgb(243,243,243)" stroke="rgb(243,243,243)" stroke-width="1" opacity="1" d="M 73.5 47 L 76 47.5 Q 73.8 48.8 75 53.5 L 79 56.5 L 76.5 58 L 70 51.5 L 71 50.5 L 73.5 47 Z " /><path fill="rgb(61,61,61)" stroke="rgb(61,61,61)" stroke-width="1" opacity="1" d="M 96.5 29 L 98.5 32 L 96.5 29 Z " /><path fill="rgb(61,61,61)" stroke="rgb(61,61,61)" stroke-width="1" opacity="1" d="M 93.5 32 L 92.5 34 L 93.5 32 Z " /><path fill="rgb(61,61,61)" stroke="rgb(61,61,61)" stroke-width="1" opacity="1" d="M 74.5 33 L 80 33.5 L 74.5 34 L 74.5 33 Z " /><path fill="rgb(61,61,61)" stroke="rgb(61,61,61)" stroke-width="1" opacity="1" d="M 83.5 34 L 91 34.5 L 83.5 35 L 83.5 34 Z " /><path fill="rgb(61,61,61)" stroke="rgb(61,61,61)" stroke-width="1" opacity="1" d="M 97.5 35 L 98 37.5 L 97 37.5 L 97.5 35 Z " /><path fill="rgb(61,61,61)" stroke="rgb(61,61,61)" stroke-width="1" opacity="1" d="M 79.5 36 L 84 36.5 L 79.5 37 L 79.5 36 Z " /><path fill="rgb(61,61,61)" stroke="rgb(61,61,61)" stroke-width="1" opacity="1" d="M 70.5 37 L 68.5 40 L 70.5 37 Z " /><path fill="rgb(61,61,61)" stroke="rgb(61,61,61)" stroke-width="1" opacity="1" d="M 95.5 41 L 94.5 43 L 95.5 41 Z " /><path fill="rgb(61,61,61)" stroke="rgb(61,61,61)" stroke-width="1" opacity="1" d="M 74.5 43 L 79 43.5 L 74.5 44 L 74.5 43 Z " /><path fill="rgb(61,61,61)" stroke="rgb(61,61,61)" stroke-width="1" opacity="1" d="M 95.5 44 L 94.5 46 L 93 45.5 L 95.5 44 Z " /><path fill="rgb(61,61,61)" stroke="rgb(61,61,61)" stroke-width="1" opacity="1" d="M 70.5 45 L 69.5 47 L 70.5 45 Z " /><path fill="rgb(61,61,61)" stroke="rgb(61,61,61)" stroke-width="1" opacity="1" d="M 56.5 46 L 57 48.5 L 56 48.5 L 56.5 46 Z " /><path fill="rgb(61,61,61)" stroke="rgb(61,61,61)" stroke-width="1" opacity="1" d="M 60.5 46 L 82 67.5 L 82 69 L 80 68.5 L 81 67.5 L 60.5 46 Z " /><path fill="rgb(61,61,61)" stroke="rgb(61,61,61)" stroke-width="1" opacity="1" d="M 73.5 46 L 75 46.5 L 70.5 50 L 73.5 46 Z " /><path fill="rgb(61,61,61)" stroke="rgb(61,61,61)" stroke-width="1" opacity="1" d="M 84.5 46 L 83.5 48 L 84.5 46 Z " /><path fill="rgb(61,61,61)" stroke="rgb(61,61,61)" stroke-width="1" opacity="1" d="M 58.5 49 Q 58.5 55 63 56.5 L 58 52.5 L 58.5 49 Z " /><path fill="rgb(61,61,61)" stroke="rgb(61,61,61)" stroke-width="1" opacity="1" d="M 85.5 49 L 86.5 51 L 85.5 49 Z " /><path fill="rgb(61,61,61)" stroke="rgb(61,61,61)" stroke-width="1" opacity="1" d="M 53.5 51 L 52 53.5 L 51.5 57 L 51 53.5 L 53.5 51 Z " /><path fill="rgb(61,61,61)" stroke="rgb(61,61,61)" stroke-width="1" opacity="1" d="M 83.5 51 L 84.5 53 L 83.5 51 Z " /><path fill="rgb(61,61,61)" stroke="rgb(61,61,61)" stroke-width="1" opacity="1" d="M 78.5 52 L 79.5 54 L 78.5 52 Z " /><path fill="rgb(61,61,61)" stroke="rgb(61,61,61)" stroke-width="1" opacity="1" d="M 86.5 53 Q 93.5 51.5 93 54.5 L 91 55.5 L 91.5 54 Q 85.5 55.3 86.5 53 Z " /><path fill="rgb(61,61,61)" stroke="rgb(61,61,61)" stroke-width="1" opacity="1" d="M 81.5 55 L 82 57.5 L 79.5 61 L 82 61.5 L 78 62 L 81.5 55 Z " /><path fill="rgb(61,61,61)" stroke="rgb(61,61,61)" stroke-width="1" opacity="1" d="M 54.5 56 L 71.5 74 L 54.5 56 Z " /><path fill="rgb(61,61,61)" stroke="rgb(61,61,61)" stroke-width="1" opacity="1" d="M 93.5 57 L 90.5 61 L 93.5 57 Z " /><path fill="rgb(61,61,61)" stroke="rgb(61,61,61)" stroke-width="1" opacity="1" d="M 88.5 58 L 87.5 60 L 88.5 58 Z " /><path fill="rgb(61,61,61)" stroke="rgb(61,61,61)" stroke-width="1" opacity="1" d="M 65.5 60 L 67 60.5 L 64.5 62 L 65.5 60 Z " /><path fill="rgb(61,61,61)" stroke="rgb(61,61,61)" stroke-width="1" opacity="1" d="M 51.5 62 L 50.5 64 L 51.5 62 Z " /><path fill="rgb(61,61,61)" stroke="rgb(61,61,61)" stroke-width="1" opacity="1" d="M 71.5 65 L 74.5 69 L 71.5 65 Z " /><path fill="rgb(61,61,61)" stroke="rgb(61,61,61)" stroke-width="1" opacity="1" d="M 48.5 66 L 47.5 68 L 48.5 66 Z " /><path fill="rgb(61,61,61)" stroke="rgb(61,61,61)" stroke-width="1" opacity="1" d="M 45.5 70 L 44.5 72 L 45.5 70 Z " /><path fill="rgb(61,61,61)" stroke="rgb(61,61,61)" stroke-width="1" opacity="1" d="M 77.5 71 L 80 71.5 L 77 72 L 76.5 74 L 76 72.5 L 77.5 71 Z " /><path fill="rgb(61,61,61)" stroke="rgb(61,61,61)" stroke-width="1" opacity="1" d="M 67.5 74 L 66.5 76 L 67.5 74 Z " /><path fill="rgb(61,61,61)" stroke="rgb(61,61,61)" stroke-width="1" opacity="1" d="M 40.5 77 L 39.5 79 L 40.5 77 Z " /><path fill="rgb(61,61,61)" stroke="rgb(61,61,61)" stroke-width="1" opacity="1" d="M 63.5 77 L 62.5 79 L 63.5 77 Z " /><path fill="rgb(61,61,61)" stroke="rgb(61,61,61)" stroke-width="1" opacity="1" d="M 59.5 80 L 58.5 82 L 59.5 80 Z " /><path fill="rgb(61,61,61)" stroke="rgb(61,61,61)" stroke-width="1" opacity="1" d="M 37.5 81 L 36.5 83 L 37.5 81 Z " /><path fill="rgb(61,61,61)" stroke="rgb(61,61,61)" stroke-width="1" opacity="1" d="M 56.5 82 L 55.5 84 L 56.5 82 Z " /><path fill="rgb(61,61,61)" stroke="rgb(61,61,61)" stroke-width="1" opacity="1" d="M 34.5 85 L 33.5 87 L 34.5 85 Z " /><path fill="rgb(61,61,61)" stroke="rgb(61,61,61)" stroke-width="1" opacity="1" d="M 52.5 85 L 51.5 87 L 52.5 85 Z " /><path fill="rgb(61,61,61)" stroke="rgb(61,61,61)" stroke-width="1" opacity="1" d="M 48.5 88 L 47.5 90 L 48.5 88 Z " /><path fill="rgb(61,61,61)" stroke="rgb(61,61,61)" stroke-width="1" opacity="1" d="M 31.5 89 L 30.5 91 L 31.5 89 Z " /><path fill="rgb(61,61,61)" stroke="rgb(61,61,61)" stroke-width="1" opacity="1" d="M 44.5 91 L 43.5 93 L 44.5 91 Z " /><path fill="rgb(61,61,61)" stroke="rgb(61,61,61)" stroke-width="1" opacity="1" d="M 40.5 94 L 39.5 96 L 40.5 94 Z " /><path fill="rgb(61,61,61)" stroke="rgb(61,61,61)" stroke-width="1" opacity="1" d="M 28.5 96 L 30 98.5 L 28 97.5 L 28.5 96 Z " /><path fill="rgb(61,61,61)" stroke="rgb(61,61,61)" stroke-width="1" opacity="1" d="M 36.5 97 L 35.5 99 L 36.5 97 Z " /><path fill="rgb(0,0,0)" stroke="rgb(0,0,0)" stroke-width="1" opacity="1" d="M 95.5 29 Q 99.9 31.1 100 37.5 L 96.5 44 L 87.5 47 L 85 49.5 Q 86.8 52.8 93.5 51 L 96 50 Q 96 58.1 89.5 61 L 82 63 L 86 68.5 L 76 72.5 L 74.5 76 Q 69.2 76.8 67.5 74 L 37.5 97 Q 35.8 99.8 30.5 99 L 28 95.5 L 54 59.5 Q 51 58.5 52 53.5 L 56 51 L 57 44.5 L 59.5 42 L 64 45 L 64 41.5 L 68.5 36 Q 72.8 32.3 82.5 34 Q 84.3 36.8 90.5 35 L 94 32.5 L 95.5 29 Z M 95 33 L 95 35 L 91 37 Q 85 39 84 36 L 73 36 L 71 37 Q 66 40 65 47 L 68 50 L 68 49 L 74 44 Q 79 42 81 46 L 77 51 L 78 53 L 81 54 L 81 58 L 78 62 Q 89 62 93 55 L 93 53 L 86 53 Q 83 52 83 49 Q 87 44 95 43 L 98 38 L 97 35 Q 98 32 95 33 Z M 59 46 L 58 53 L 63 58 L 61 58 L 56 53 L 54 57 L 72 74 L 74 74 L 74 72 L 69 67 L 71 65 L 75 69 L 82 69 L 82 68 L 61 46 L 59 46 Z M 74 46 Q 69 47 70 53 L 77 59 L 79 57 Q 80 54 78 55 L 75 52 L 77 47 L 74 46 Z " /><path fill="rgb(0,0,0)" stroke="rgb(0,0,0)" stroke-width="1" opacity="1" d="M 65 61 Q 68 60 67 63 Q 64 64 65 61 Z " /></svg>